PathFileType	4	(X/Y/Z)	outputs\dynamic_markers.trc
DataRate	CameraRate	NumFrames	NumMarkers	Units	OrigDataRate	OrigDataStartFrame	OrigNumFrames
360.000000	360.000000	4	45	m	360.000000	382	612
Frame#	Time	C7			CLAV			LANK			LASI			LBHD			LELB			LFHD			LFIN			LFRM			LHEE			LKNE			LMANK			LMELB			LMKNE			LPSI			LSHO			LTHI			LTIB			LTOE			LUPA			LWRA			LWRB			RANK			RASI			RBAK			RBHD			RELB			RFHD			RFIN			RFRM			RHEE			RKNE			RMANK			RMELB			RMKNE			RPSI			RSHO			RTHI			RTIB			RTOE			RUPA			RWRA			RWRB			STRN			T10			
		X1	Y1	Z1	X2	Y2	Z2	X3	Y3	Z3	X4	Y4	Z4	X5	Y5	Z5	X6	Y6	Z6	X7	Y7	Z7	X8	Y8	Z8	X9	Y9	Z9	X10	Y10	Z10	X11	Y11	Z11	X12	Y12	Z12	X13	Y13	Z13	X14	Y14	Z14	X15	Y15	Z15	X16	Y16	Z16	X17	Y17	Z17	X18	Y18	Z18	X19	Y19	Z19	X20	Y20	Z20	X21	Y21	Z21	X22	Y22	Z22	X23	Y23	Z23	X24	Y24	Z24	X25	Y25	Z25	X26	Y26	Z26	X27	Y27	Z27	X28	Y28	Z28	X29	Y29	Z29	X30	Y30	Z30	X31	Y31	Z31	X32	Y32	Z32	X33	Y33	Z33	X34	Y34	Z34	X35	Y35	Z35	X36	Y36	Z36	X37	Y37	Z37	X38	Y38	Z38	X39	Y39	Z39	X40	Y40	Z40	X41	Y41	Z41	X42	Y42	Z42	X43	Y43	Z43	X44	Y44	Z44	X45	Y45	Z45	

383	1.061111111111111	0.4667424261569977	1.327059030532837	0.08519214391708374	0.4478802680969238	1.198158144950867	0.224210798740387	1.273190855979919	0.1591054201126099	0.5474545359611511	0.8453449010848999	0.843802273273468	0.1349881738424301	0.3914897739887238	1.428033113479614	0.1345512717962265	0.7455869317054749	1.244358777999878	0.5490211248397827	0.4864245653152466	1.45185124874115	0.2565345168113708	0.8941650390625	0.9881741404533386	0.8019199967384338	0.766185998916626	1.139960765838623	0.6556291580200195	1.216630101203918	0.1085027903318405	0.5080976486206055	1.049603700637817	0.5754611492156982	0.45304074883461	1.183562159538269	0.1111617982387543	0.5840388536453247	0.8122426271438599	1.227857112884521	0.4908445179462433	0.9521918296813965	0.5275716185569763	0.4811383783817291	0.7693755030632019	0.8303609490394592	-0.08603980392217636	0.5345029234886169	1.340814471244812	0.2590943276882172	1.014459133148193	0.6379880905151367	0.306695818901062	1.120502352714539	0.488254576921463	0.4550813436508179	1.263578176498413	0.1830565929412842	0.7144938707351685	0.643693745136261	1.280539274215698	0.4427552223205566	0.823502779006958	1.043588042259216	0.7128828763961792	0.8754596710205078	1.102705478668213	0.7412024736404419	0.04722166806459427	0.1111960485577583	0.1166450530290604	0.5947453379631042	0.8268442749977112	0.1343518942594528	0.5123676657676697	1.09779167175293	-0.06916680932044983	0.2998532950878143	1.38458514213562	0.2145318537950516	0.08705802261829376	1.08774733543396	-0.1104781851172447	0.3860034346580505	1.409437894821167	0.3420410454273224	0.06046614423394203	0.7778793573379517	0.04996013641357422	0.06612133979797363	0.9295809268951416	-0.0230602789670229	0.1063329130411148	0.07346803694963455	0.05283120274543762	0.3278274238109589	0.4930321276187897	0.2792887985706329	0.1259591281414032	0.03649580851197243	0.155630886554718	0.1474635452032089	1.047607421875	-0.1739179939031601	0.4036042094230652	0.3978031575679779	0.3019099235534668	0.6951612830162048	0.8269757628440857	-0.08865872770547867	0.3390186131000519	1.2449049949646	0.03957555815577507	0.4544140100479126	0.6924400329589844	0.1407095342874527	0.2234935313463211	0.3723756372928619	0.2271909117698669	0.04616039246320724	0.0692940279841423	0.2753234803676605	0.1953758150339127	1.153911828994751	-0.01514746807515621	0.09687105566263199	0.8150953054428101	-0.01113552041351795	0.01452191639691591	0.8345081806182861	-0.01222006976604462	0.5801458954811096	0.9953329563140869	0.2154993116855621	0.6824800968170166	1.042876005172729	-0.05984653532505035	
384	1.063888888888889	0.4736386239528656	1.327657341957092	0.08546497672796249	0.455053448677063	1.198172450065613	0.2238739281892776	1.287345767021179	0.1588254570960999	0.5366005897521973	0.8520836234092712	0.8432725667953491	0.1351922899484634	0.3984481692314148	1.428082585334778	0.1351492553949356	0.7556854486465454	1.25152850151062	0.549090564250946	0.492709219455719	1.451677441596985	0.2576619982719421	0.90648353099823	0.9939038753509521	0.7984436750411987	0.776893138885498	1.14635169506073	0.6548898816108704	1.229941964149475	0.1081741899251938	0.498269259929657	1.0619215965271	0.576103150844574	0.4500211179256439	1.198657035827637	0.1106708943843842	0.5750600695610046	0.8231244087219238	1.236916542053223	0.4914647340774536	0.964771568775177	0.5277090668678284	0.4792841374874115	0.7752757668495178	0.8300067186355591	-0.08591283112764359	0.5416713356971741	1.340669631958008	0.2589106261730194	1.02459704875946	0.6386014223098755	0.3044129312038422	1.13274872303009	0.4888850152492523	0.4496669769287109	1.281673550605774	0.1823544204235077	0.7037796378135681	0.6523148417472839	1.284741878509521	0.4424614608287811	0.8348022699356079	1.050453782081604	0.7113163471221924	0.8858770132064819	1.109728336334229	0.7405226826667786	0.04883024096488953	0.1119630560278893	0.1170216053724289	0.601076066493988	0.8269852995872498	0.1352836638689041	0.5195871591567993	1.098260998725891	-0.06965842843055725	0.306551456451416	1.384039044380188	0.2146018594503403	0.0944383442401886	1.094136953353882	-0.1139700561761856	0.3920980393886566	1.408526420593262	0.3425811529159546	0.06408444792032242	0.7850552797317505	0.04720716923475266	0.07152644544839859	0.9363912343978882	-0.02637727558612823	0.1081583574414253	0.0741131380200386	0.05355236306786537	0.3350636661052704	0.4908232390880585	0.2783826291561127	0.1271374076604843	0.03676473349332809	0.1561131477355957	0.1543846726417542	1.053545713424683	-0.1772947162389755	0.4106599390506744	0.3949193358421326	0.2995154559612274	0.7009185552597046	0.826909601688385	-0.0881536453962326	0.3465278148651123	1.246165990829468	0.03932598605751991	0.4611410796642303	0.6919788122177124	0.1418064832687378	0.229263037443161	0.3712879717350006	0.2270544469356537	0.04681489244103432	0.06933334469795227	0.2756505608558655	0.2025729566812515	1.157838106155396	-0.01723917946219444	0.1009214073419571	0.8216627836227417	-0.01380281243473291	0.01919876039028168	0.8419358730316162	-0.01545949373394251	0.5870779752731323	0.9959365129470825	0.2152607440948486	0.6887003779411316	1.042683243751526	-0.05987652018666267	
385	1.066666666666667	0.4806523323059082	1.32830023765564	0.08562082797288895	0.4621900916099548	1.198347210884094	0.223990872502327	1.301267385482788	0.1584087312221527	0.5252202749252319	0.8587832450866699	0.8423465490341187	0.1347845941781998	0.4055632352828979	1.42827582359314	0.1356559991836548	0.7656843066215515	1.259060025215149	0.5488764047622681	0.4993151128292084	1.451570153236389	0.2587271928787231	0.9187577366828918	0.9995194673538208	0.7942521572113037	0.7878057360649109	1.153166055679321	0.653809666633606	1.243231415748596	0.1076484173536301	0.4883553087711334	1.074211716651917	0.5766797065734863	0.4470433592796326	1.21368145942688	0.1099613681435585	0.565910279750824	0.8338558673858643	1.246160984039307	0.4919445812702179	0.977543830871582	0.5279122591018677	0.4774281084537506	0.7812110185623169	0.8297337293624878	-0.08572707325220108	0.5490083694458008	1.340680718421936	0.2586295008659363	1.034700036048889	0.6392247080802917	0.3021126389503479	1.14493989944458	0.4895538091659546	0.4447986483573914	1.299571394920349	0.1818396747112274	0.6927770972251892	0.6611430048942566	1.289064764976501	0.4417992532253265	0.8459104895591736	1.057411074638367	0.7090798020362854	0.8965062499046326	1.116575717926025	0.7392895817756653	0.05049121379852295	0.1129924133419991	0.1175660043954849	0.6075646877288818	0.8273298144340515	0.1362876445055008	0.5266568660736084	1.098598003387451	-0.07005785405635834	0.3134203255176544	1.383687734603882	0.2145806849002838	0.1018021702766418	1.10084867477417	-0.1174024790525436	0.3984501957893372	1.407851696014404	0.3429406881332397	0.06850805878639221	0.7922285199165344	0.04393681138753891	0.07749851047992706	0.9435092806816101	-0.02966914512217045	0.1101689264178276	0.07500119507312775	0.05420958623290062	0.3424389660358429	0.4885676503181458	0.2777596414089203	0.1288378983736038	0.03726249560713768	0.1571961343288422	0.1615812629461288	1.05969762802124	-0.180737242102623	0.4179163575172424	0.392099916934967	0.297023206949234	0.706758975982666	0.8268772959709167	-0.0875958725810051	0.354149729013443	1.247267246246338	0.03886337950825691	0.4679644703865051	0.6914441585540771	0.1428451836109161	0.2349539697170258	0.3702488243579865	0.2271206676959991	0.04786167293787003	0.0693814605474472	0.2762253284454346	0.2098876535892487	1.161962985992432	-0.01925976574420929	0.1058672815561295	0.8284215927124023	-0.01714489050209522	0.02408032119274139	0.8496619462966919	-0.01860639825463295	0.5940543413162231	0.9966652989387512	0.2150128036737442	0.6950345039367676	1.042374849319458	-0.05989627167582512	
386	1.069444444444444	0.4853479564189911	1.328635931015015	0.08579229563474655	0.4669808745384216	1.198491454124451	0.2240293174982071	1.310426950454712	0.1581602692604065	0.5176281332969666	0.8631649017333984	0.8418165445327759	0.1347564607858658	0.4103737473487854	1.428444623947144	0.1360038369894028	0.7724922299385071	1.264290332794189	0.5486506223678589	0.5038053393363953	1.45151960849762	0.2592941522598267	0.9269318580627441	1.00331699848175	0.7910750508308411	0.7949950695037842	1.157785654067993	0.6528825759887695	1.251834750175476	0.107354074716568	0.4817476570606232	1.082387566566467	0.577058732509613	0.4450386464595795	1.223517775535583	0.109660878777504	0.5598030686378479	0.8409603834152222	1.252678751945496	0.4921534061431885	0.9860938787460327	0.5279943346977234	0.4761272668838501	0.7851789593696594	0.829444944858551	-0.0855775773525238	0.5538944005966187	1.34078848361969	0.2583849430084229	1.04145622253418	0.6396841406822205	0.3005146384239197	1.153112530708313	0.4899128675460815	0.4412452578544617	1.311498045921326	0.1814410537481308	0.6852470636367798	0.6670225262641907	1.292316794395447	0.441351056098938	0.8533750176429749	1.062300682067871	0.7073754668235779	0.9037699699401855	1.121162414550781	0.7381848096847534	0.05198534205555916	0.1137501299381256	0.1179320514202118	0.6116586923599243	0.8273881673812866	0.1369027644395828	0.5314556956291199	1.098883032798767	-0.07048067450523376	0.3181549906730652	1.383520126342773	0.2144997119903564	0.1069141179323196	1.105337023735046	-0.1197483018040657	0.4027255773544312	1.407420516014099	0.3431869745254517	0.07179395854473114	0.7974054217338562	0.04201999306678772	0.08160313218832016	0.9484752416610718	-0.0319824330508709	0.1117452308535576	0.07565551996231079	0.05480082333087921	0.3473982810974121	0.4870713949203491	0.2774524688720703	0.1297925561666489	0.03755084797739983	0.1576801389455795	0.1664210259914398	1.063837170600891	-0.1830203533172607	0.4227679371833801	0.3901062905788422	0.2955136597156525	0.7106580138206482	0.8268429040908813	-0.08720756322145462	0.3591457009315491	1.248245239257812	0.03854177892208099	0.4724761247634888	0.6910207867622375	0.1436412334442139	0.2388777732849121	0.369532436132431	0.2271831929683685	0.04859310761094093	0.06936338543891907	0.2766030728816986	0.2147139608860016	1.164703726768494	-0.02054762281477451	0.1092739254236221	0.833158552646637	-0.01919143460690975	0.02765117958188057	0.8550035357475281	-0.02057976834475994	0.5986642837524414	0.9971907734870911	0.2149417102336884	0.6992207169532776	1.042156338691711	-0.05999193340539932	
